HIERARCHY
ROOT Haolin_V1:Solving:Hips
{
	OFFSET 0.000000 0.000000 0.000000
	CHANNELS 6 Xposition Yposition Zposition Xrotation Yrotation Zrotation
	JOINT Haolin_V1:Solving:Spine
	{
		OFFSET 0.000000 -12.731938 2.520517
		CHANNELS 6 Xposition Yposition Zposition Xrotation Yrotation Zrotation
		JOINT Haolin_V1:Solving:Spine1
		{
			OFFSET 0.000000 -8.486854 1.496462
			CHANNELS 6 Xposition Yposition Zposition Xrotation Yrotation Zrotation
			JOINT Haolin_V1:Solving:Spine2
			{
				OFFSET 0.000000 -8.584984 0.751091
				CHANNELS 6 Xposition Yposition Zposition Xrotation Yrotation Zrotation
				JOINT Haolin_V1:Solving:Spine3
				{
					OFFSET 0.000000 -8.617775 0.000000
					CHANNELS 6 Xposition Yposition Zposition Xrotation Yrotation Zrotation
					JOINT Haolin_V1:Solving:Neck
					{
						OFFSET 0.000000 -11.080002 -1.107998
						CHANNELS 6 Xposition Yposition Zposition Xrotation Yrotation Zrotation
						JOINT Haolin_V1:Solving:Neck1
						{
							OFFSET 0.000000 -8.314011 -0.727381
							CHANNELS 6 Xposition Yposition Zposition Xrotation Yrotation Zrotation
							JOINT Haolin_V1:Solving:Head
							{
								OFFSET 0.000000 -8.218975 -1.449226
								CHANNELS 6 Xposition Yposition Zposition Xrotation Yrotation Zrotation
								JOINT Haolin_V1:Solving:HeadEnd
								{
									OFFSET 0.000000 -9.728081 0.000002
									CHANNELS 6 Xposition Yposition Zposition Xrotation Yrotation Zrotation
									End Site
									{
										OFFSET 0.000000 -9.728081 0.000002
									}
								}
							}
						}
					}
					JOINT Haolin_V1:Solving:RightShoulder
					{
						OFFSET 0.000000 -7.914288 -5.288076
						CHANNELS 6 Xposition Yposition Zposition Xrotation Yrotation Zrotation
						JOINT Haolin_V1:Solving:RightArm
						{
							OFFSET -20.201836 -0.000008 0.000000
							CHANNELS 6 Xposition Yposition Zposition Xrotation Yrotation Zrotation
							JOINT Haolin_V1:Solving:RightForeArm
							{
								OFFSET -29.446457 -0.000008 0.000000
								CHANNELS 6 Xposition Yposition Zposition Xrotation Yrotation Zrotation
								JOINT Haolin_V1:Solving:RightHand
								{
									OFFSET -23.111885 -0.000008 0.000000
									CHANNELS 6 Xposition Yposition Zposition Xrotation Yrotation Zrotation
									JOINT Haolin_V1:Solving:RightHandThumb1
									{
										OFFSET -3.824379 2.925484 -2.843767
										CHANNELS 6 Xposition Yposition Zposition Xrotation Yrotation Zrotation
										End Site
										{
											OFFSET -5.557076 0.000000 -5.608460
										}
									}
									JOINT Haolin_V1:Solving:RightHandMiddle1
									{
										OFFSET -10.198334 -0.000004 0.065374
										CHANNELS 6 Xposition Yposition Zposition Xrotation Yrotation Zrotation
										End Site
										{
											OFFSET -7.895309 -0.000004 0.000000
										}
									}
								}
							}
						}
					}
					JOINT Haolin_V1:Solving:LeftShoulder
					{
						OFFSET 0.000000 -7.914288 -5.288076
						CHANNELS 6 Xposition Yposition Zposition Xrotation Yrotation Zrotation
						JOINT Haolin_V1:Solving:LeftArm
						{
							OFFSET 20.201836 -0.000008 0.000000
							CHANNELS 6 Xposition Yposition Zposition Xrotation Yrotation Zrotation
							JOINT Haolin_V1:Solving:LeftForeArm
							{
								OFFSET 29.446457 -0.000008 0.000000
								CHANNELS 6 Xposition Yposition Zposition Xrotation Yrotation Zrotation
								JOINT Haolin_V1:Solving:LeftHand
								{
									OFFSET 23.111885 -0.000008 0.000000
									CHANNELS 6 Xposition Yposition Zposition Xrotation Yrotation Zrotation
									JOINT Haolin_V1:Solving:LeftHandThumb1
									{
										OFFSET 3.824379 2.925484 -2.843767
										CHANNELS 6 Xposition Yposition Zposition Xrotation Yrotation Zrotation
										End Site
										{
											OFFSET 5.557076 0.000000 -5.608460
										}
									}
									JOINT Haolin_V1:Solving:LeftHandMiddle1
									{
										OFFSET 10.198334 -0.000004 0.065374
										CHANNELS 6 Xposition Yposition Zposition Xrotation Yrotation Zrotation
										End Site
										{
											OFFSET 7.895309 -0.000004 0.000000
										}
									}
								}
							}
						}
					}
				}
			}
		}
	}
	JOINT Haolin_V1:Solving:RightUpLeg
	{
		OFFSET -10.695510 0.000000 0.000000
		CHANNELS 6 Xposition Yposition Zposition Xrotation Yrotation Zrotation
		JOINT Haolin_V1:Solving:RightLeg
		{
			OFFSET 0.000000 46.236332 -0.000006
			CHANNELS 6 Xposition Yposition Zposition Xrotation Yrotation Zrotation
			JOINT Haolin_V1:Solving:RightFoot
			{
				OFFSET 0.000000 41.248135 -0.000006
				CHANNELS 6 Xposition Yposition Zposition Xrotation Yrotation Zrotation
				JOINT Haolin_V1:Solving:RightForeFoot
				{
					OFFSET 0.000000 3.207336 -0.000000
					CHANNELS 6 Xposition Yposition Zposition Xrotation Yrotation Zrotation
					JOINT Haolin_V1:Solving:RightToeBase
					{
						OFFSET 0.000000 0.000000 -12.560947
						CHANNELS 6 Xposition Yposition Zposition Xrotation Yrotation Zrotation
						JOINT Haolin_V1:Solving:RightToeBaseEnd
						{
							OFFSET 0.000000 0.000000 -3.517768
							CHANNELS 6 Xposition Yposition Zposition Xrotation Yrotation Zrotation
							End Site
							{
								OFFSET 0.000000 -3.517769 0.000004
							}
						}
					}
				}
			}
		}
	}
	JOINT Haolin_V1:Solving:LeftUpLeg
	{
		OFFSET 10.695510 0.000000 0.000000
		CHANNELS 6 Xposition Yposition Zposition Xrotation Yrotation Zrotation
		JOINT Haolin_V1:Solving:LeftLeg
		{
			OFFSET 0.000000 46.236332 -0.000006
			CHANNELS 6 Xposition Yposition Zposition Xrotation Yrotation Zrotation
			JOINT Haolin_V1:Solving:LeftFoot
			{
				OFFSET 0.000000 41.248135 -0.000006
				CHANNELS 6 Xposition Yposition Zposition Xrotation Yrotation Zrotation
				JOINT Haolin_V1:Solving:LeftForeFoot
				{
					OFFSET 0.000000 3.207336 -0.000000
					CHANNELS 6 Xposition Yposition Zposition Xrotation Yrotation Zrotation
					JOINT Haolin_V1:Solving:LeftToeBase
					{
						OFFSET 0.000000 0.000000 -12.560947
						CHANNELS 6 Xposition Yposition Zposition Xrotation Yrotation Zrotation
						JOINT Haolin_V1:Solving:LeftToeBaseEnd
						{
							OFFSET 0.000000 0.000000 -3.901837
							CHANNELS 6 Xposition Yposition Zposition Xrotation Yrotation Zrotation
							End Site
							{
								OFFSET 0.000000 -3.901840 0.000004
							}
						}
					}
				}
			}
		}
	}
}
MOTION
Frames: 4
Frame Time: 0.041667
2.925495 -112.610977 -94.590630 84.845587 -4.217699 -1.894037 0.000000 -12.731929 2.520499 13.202330 -0.138567 -1.621149 0.000000 -8.486833 1.496466 0.432428 -0.085812 0.202683 -0.000000 -8.584995 0.751106 -5.760042 0.198997 0.993440 0.000000 -8.617756 -0.000003 -3.283328 -0.180208 1.915125 -0.000001 -11.080023 -1.107993 4.415056 1.403379 -0.865393 -0.000001 -8.313995 -0.727424 4.509536 -0.556044 -1.399154 -0.000001 -8.218985 -1.449231 12.329970 0.023664 -2.024386 0.000000 -9.728104 0.000011 0.000003 0.000000 0.000000 -0.000003 -7.914310 -5.288069 -0.000008 19.002070 13.028290 -20.201841 0.000027 -0.000000 -0.541319 -41.026317 -81.973608 -29.446444 -0.000009 0.000016 10.157243 -27.431360 4.718188 -23.111879 -0.000007 -0.000003 -0.024400 0.860289 1.624539 -3.824388 2.925498 -2.843760 -0.000008 -0.000003 -0.000003 -10.198335 0.000014 0.065375 0.000001 0.000002 -0.000002 -0.000001 -7.914295 -5.288069 -0.000006 -14.001384 -13.904673 20.201828 0.000024 0.000006 -7.367029 26.332754 86.620903 29.446461 -0.000002 0.000003 17.982677 5.628814 -1.823458 23.111879 -0.000002 0.000001 0.028320 0.153535 -10.457271 3.824356 2.925472 -2.843745 0.000005 0.000000 0.000000 10.198309 -0.000003 0.065382 0.000003 -0.000001 -0.000003 -10.695508 0.000007 -0.000030 3.536156 10.904867 5.259436 0.000002 46.236324 -0.000030 11.717727 0.000001 0.000001 0.000001 41.248142 0.000007 -10.808547 -0.825780 -6.112417 -0.000000 3.207344 -0.000013 0.000000 0.000000 -0.000000 -0.000002 -0.000018 -12.560951 6.883509 0.000000 -0.000000 0.000000 0.000000 -3.517800 0.000000 0.000000 -0.000000 10.695512 0.000005 -0.000016 2.635558 -12.437997 1.830774 -0.000009 46.236336 -0.000001 10.211847 -0.000003 0.000001 -0.000001 41.248142 0.000003 -6.149544 -12.669938 -7.258940 -0.000006 3.207336 -0.000015 -0.000000 0.000000 -0.000000 0.000014 -0.000006 -12.560958 -1.746360 0.000000 -0.000000 -0.000007 -0.000000 -3.901819 0.000000 -0.000005 0.000000 
2.865209 -112.745193 -94.561249 85.421843 -4.125048 -1.890693 -0.000001 -12.731938 2.520504 12.666320 -0.266520 -1.513978 -0.000001 -8.486835 1.496434 0.418490 -0.090577 0.195962 -0.000001 -8.584975 0.751080 -5.768259 0.203678 1.007886 -0.000002 -8.617774 -0.000001 -3.278335 -0.180615 1.889499 -0.000002 -11.079992 -1.107979 4.443991 1.434877 -0.904922 -0.000000 -8.314000 -0.727384 4.503691 -0.532628 -1.413977 -0.000001 -8.218954 -1.449247 12.358944 0.025609 -2.046032 -0.000005 -9.728065 -0.000000 -0.000001 0.000000 -0.000001 -0.000001 -7.914291 -5.288033 -0.000014 18.992352 12.913470 -20.201832 0.000020 -0.000002 -0.701846 -41.602177 -82.632257 -29.446449 -0.000006 -0.000012 9.212647 -27.440186 4.274365 -23.111902 -0.000008 -0.000002 -0.012011 0.939721 0.732106 -3.824403 2.925476 -2.843767 0.000009 -0.000009 -0.000003 -10.198332 -0.000016 0.065365 0.000006 0.000001 0.000002 0.000001 -7.914291 -5.288033 -0.000009 -13.900293 -13.810045 20.201830 -0.000017 0.000016 -7.290730 27.691062 87.085465 29.446465 -0.000013 0.000006 18.288504 5.842522 -1.926837 23.111876 -0.000023 0.000015 0.048648 0.276499 -9.980958 3.824406 2.925472 -2.843748 0.000006 -0.000007 0.000005 10.198342 -0.000001 0.065392 -0.000005 -0.000001 0.000001 -10.695513 -0.000002 -0.000022 2.764580 10.602011 5.277673 0.000003 46.236324 0.000004 11.962530 -0.000000 0.000001 -0.000002 41.248127 -0.000008 -10.991449 -0.631384 -6.243105 -0.000002 3.207336 -0.000020 0.000000 0.000000 -0.000000 -0.000009 0.000009 -12.560951 7.049218 0.000001 0.000000 0.000001 -0.000000 -3.517743 -0.000000 0.000000 0.000000 10.695512 -0.000008 0.000001 1.934939 -12.564741 1.827283 0.000004 46.236347 -0.000037 10.333281 0.000004 0.000001 0.000004 41.248150 0.000011 -6.205746 -12.665180 -7.187086 0.000002 3.207336 0.000004 -0.000000 -0.000003 -0.000001 0.000005 -0.000005 -12.560943 -1.773027 -0.000003 0.000001 0.000001 -0.000000 -3.901832 -0.000000 -0.000003 0.000000 
2.828139 -112.662346 -94.583466 85.083837 -4.158468 -1.893554 0.000001 -12.731909 2.520517 12.981300 -0.250502 -1.537358 0.000000 -8.486864 1.496461 0.422055 -0.090999 0.197111 -0.000000 -8.585006 0.751107 -5.754650 0.211305 1.020868 -0.000000 -8.617752 -0.000015 -3.253707 -0.175905 1.882964 -0.000000 -11.080034 -1.108014 4.467938 1.457081 -0.930090 0.000000 -8.314005 -0.727409 4.478521 -0.517410 -1.429992 -0.000001 -8.218988 -1.449231 12.384739 0.026814 -2.067217 -0.000004 -9.728088 0.000010 -0.000000 0.000000 -0.000000 0.000001 -7.914291 -5.288104 -0.000008 18.956362 12.991318 -20.201836 0.000020 0.000013 -0.871228 -42.689027 -83.586988 -29.446455 -0.000004 -0.000008 9.198501 -27.161296 4.227800 -23.111900 -0.000001 0.000021 0.027525 -0.604057 2.609248 -3.824355 2.925466 -2.843716 0.000015 -0.000003 0.000001 -10.198293 -0.000016 0.065413 0.000007 -0.000006 0.000003 0.000000 -7.914291 -5.288104 -0.000003 -13.811602 -13.643585 20.201839 0.000011 -0.000015 -7.044031 28.393668 87.464486 29.446432 -0.000003 0.000017 19.395932 6.395169 -2.245746 23.111893 -0.000009 -0.000002 0.021523 0.126204 -9.687827 3.824388 2.925478 -2.843769 -0.000000 0.000007 0.000002 10.198317 -0.000001 0.065362 -0.000005 0.000001 -0.000003 -10.695508 0.000024 0.000014 3.233284 10.713412 5.215073 -0.000004 46.236328 -0.000007 11.808304 -0.000001 0.000001 0.000002 41.248142 -0.000011 -10.883791 -0.698729 -6.133467 -0.000002 3.207336 -0.000000 0.000000 0.000001 -0.000000 -0.000001 0.000009 -12.560926 6.985471 -0.000001 0.000001 0.000002 0.000000 -3.517771 0.000000 -0.000000 -0.000000 10.695512 0.000031 -0.000000 2.385408 -12.595963 1.785526 -0.000003 46.236332 -0.000005 10.170620 -0.000001 0.000001 0.000008 41.248142 -0.000015 -6.110455 -12.576716 -7.177662 0.000004 3.207336 -0.000002 0.000000 0.000001 -0.000000 0.000012 0.000005 -12.560950 -1.763511 0.000002 0.000002 0.000002 0.000001 -3.901846 0.000000 0.000007 0.000002 
2.790417 -112.627548 -94.596138 84.934468 -4.204878 -1.901987 -0.000001 -12.731928 2.520550 13.126844 -0.229061 -1.546180 0.000000 -8.486876 1.496445 0.422289 -0.090696 0.205709 0.000002 -8.584978 0.751103 -5.753178 0.240498 1.024962 0.000000 -8.617777 -0.000005 -3.234271 -0.175055 1.870956 0.000002 -11.079973 -1.108024 4.462943 1.470908 -0.951676 -0.000000 -8.313988 -0.727346 4.484248 -0.545989 -1.435869 -0.000000 -8.219009 -1.449221 12.394035 0.024435 -2.068403 0.000003 -9.728096 -0.000019 0.000003 0.000000 0.000000 0.000000 -7.914284 -5.288106 -0.000005 18.905178 12.961449 -20.201824 -0.000025 -0.000004 -1.130660 -43.480161 -84.433501 -29.446451 -0.000013 0.000017 9.132334 -26.884261 4.157517 -23.111889 -0.000021 0.000000 0.053670 -1.046529 2.935856 -3.824368 2.925496 -2.843765 -0.000002 -0.000009 0.000004 -10.198293 0.000007 0.065361 -0.000009 -0.000000 0.000003 -0.000000 -7.914280 -5.288106 -0.000004 -13.735598 -13.506643 20.201843 -0.000023 -0.000004 -6.930365 29.538898 87.859899 29.446436 0.000000 0.000020 19.986447 6.714959 -2.435172 23.111887 -0.000008 -0.000011 0.038910 0.240907 -9.179127 3.824427 2.925470 -2.843779 0.000002 0.000002 0.000003 10.198335 -0.000010 0.065367 -0.000000 0.000003 0.000001 -10.695511 0.000010 0.000014 3.449725 10.770592 5.176330 -0.000001 46.236313 -0.000022 11.729221 0.000001 -0.000000 -0.000003 41.248116 -0.000002 -10.833418 -0.713056 -6.074919 -0.000005 3.207336 0.000004 0.000000 0.000000 -0.000000 0.000001 -0.000008 -12.560946 6.969269 -0.000000 -0.000001 0.000003 0.000000 -3.517774 0.000000 0.000000 -0.000000 10.695508 0.000009 0.000026 2.585992 -12.572791 1.761682 0.000003 46.236332 -0.000013 10.078088 0.000001 0.000001 0.000007 41.248127 -0.000005 -6.047986 -12.540491 -7.171863 0.000012 3.207336 -0.000013 -0.000001 -0.000002 0.000000 0.000001 0.000003 -12.560957 -1.748132 -0.000001 -0.000000 -0.000003 -0.000000 -3.901827 -0.000000 -0.000004 -0.000000 
